<mxfile host="app.diagrams.net" modified="2023-08-23T09:09:45.727Z" agent="Mozilla/5.0 (Windows NT 10.0; Win64; x64) AppleWebKit/537.36 (KHTML, like Gecko) Chrome/115.0.0.0 Safari/537.36" etag="IXxRtn_idb1BHJsCyJF8" version="21.6.8" type="device">
  <diagram id="C5RBs43oDa-KdzZeNtuy" name="Page-1">
    <mxGraphModel dx="8483" dy="5253" grid="1" gridSize="10" guides="1" tooltips="1" connect="1" arrows="1" fold="1" page="1" pageScale="1" pageWidth="827" pageHeight="1169" math="0" shadow="0">
      <root>
        <mxCell id="WIyWlLk6GJQsqaUBKTNV-0" />
        <mxCell id="WIyWlLk6GJQsqaUBKTNV-1" parent="WIyWlLk6GJQsqaUBKTNV-0" />
        <mxCell id="xALUO3HwdJlkxT8yfgA3-7" value="&lt;font size=&quot;1&quot; style=&quot;&quot;&gt;&lt;b style=&quot;font-size: 66px;&quot;&gt;เจ้าหน้าที่&lt;/b&gt;&lt;/font&gt;" style="rounded=0;whiteSpace=wrap;html=1;strokeWidth=4;" parent="WIyWlLk6GJQsqaUBKTNV-1" vertex="1">
          <mxGeometry x="1069" y="-200" width="1850" height="160" as="geometry" />
        </mxCell>
        <mxCell id="xALUO3HwdJlkxT8yfgA3-8" value="&lt;font size=&quot;1&quot; style=&quot;&quot;&gt;&lt;b style=&quot;font-size: 66px;&quot;&gt;นักศึกษา&lt;/b&gt;&lt;/font&gt;" style="rounded=0;whiteSpace=wrap;html=1;strokeWidth=4;" parent="WIyWlLk6GJQsqaUBKTNV-1" vertex="1">
          <mxGeometry x="-220" y="-200" width="1289" height="160" as="geometry" />
        </mxCell>
        <mxCell id="xALUO3HwdJlkxT8yfgA3-9" value="&lt;font size=&quot;1&quot; style=&quot;&quot;&gt;&lt;b style=&quot;font-size: 66px;&quot;&gt;รองคณบดีฝ่ายบริหาร&lt;/b&gt;&lt;/font&gt;" style="rounded=0;whiteSpace=wrap;html=1;strokeWidth=4;" parent="WIyWlLk6GJQsqaUBKTNV-1" vertex="1">
          <mxGeometry x="2919" y="-200" width="1220" height="160" as="geometry" />
        </mxCell>
        <mxCell id="xALUO3HwdJlkxT8yfgA3-12" value="&lt;font style=&quot;font-size: 55px;&quot;&gt;เข้ามากรอกเเบบฟอร์มขอใช้ห้องเรียน&lt;/font&gt;" style="rounded=0;whiteSpace=wrap;html=1;strokeWidth=4;" parent="WIyWlLk6GJQsqaUBKTNV-1" vertex="1">
          <mxGeometry x="-85" y="860" width="630" height="200" as="geometry" />
        </mxCell>
        <mxCell id="xALUO3HwdJlkxT8yfgA3-25" value="&lt;font style=&quot;font-size: 55px;&quot;&gt;ต้องการใช้ห้องเรียนเพื่อทำการเรียนการสอนเพิ่มเติม&lt;/font&gt;" style="rounded=0;whiteSpace=wrap;html=1;strokeWidth=4;" parent="WIyWlLk6GJQsqaUBKTNV-1" vertex="1">
          <mxGeometry x="-760" y="150" width="500" height="200" as="geometry" />
        </mxCell>
        <mxCell id="xALUO3HwdJlkxT8yfgA3-29" value="" style="endArrow=classic;html=1;rounded=0;exitX=0.5;exitY=1;exitDx=0;exitDy=0;entryX=0.5;entryY=0;entryDx=0;entryDy=0;strokeWidth=4;" parent="WIyWlLk6GJQsqaUBKTNV-1" source="xALUO3HwdJlkxT8yfgA3-25" target="xALUO3HwdJlkxT8yfgA3-60" edge="1">
          <mxGeometry width="50" height="50" relative="1" as="geometry">
            <mxPoint x="-550" y="470" as="sourcePoint" />
            <mxPoint x="150" y="560" as="targetPoint" />
          </mxGeometry>
        </mxCell>
        <mxCell id="xALUO3HwdJlkxT8yfgA3-43" value="" style="endArrow=classic;html=1;rounded=0;exitX=0.5;exitY=1;exitDx=0;exitDy=0;strokeWidth=4;entryX=0.5;entryY=0;entryDx=0;entryDy=0;" parent="WIyWlLk6GJQsqaUBKTNV-1" source="xALUO3HwdJlkxT8yfgA3-80" edge="1" target="xALUO3HwdJlkxT8yfgA3-164">
          <mxGeometry width="50" height="50" relative="1" as="geometry">
            <mxPoint x="3023" y="1280" as="sourcePoint" />
            <mxPoint x="2241" y="2030" as="targetPoint" />
          </mxGeometry>
        </mxCell>
        <mxCell id="xALUO3HwdJlkxT8yfgA3-46" value="" style="endArrow=classic;html=1;rounded=0;exitX=0.5;exitY=1;exitDx=0;exitDy=0;strokeWidth=4;entryX=0.5;entryY=0;entryDx=0;entryDy=0;" parent="WIyWlLk6GJQsqaUBKTNV-1" source="xALUO3HwdJlkxT8yfgA3-128" edge="1" target="xALUO3HwdJlkxT8yfgA3-131">
          <mxGeometry width="50" height="50" relative="1" as="geometry">
            <mxPoint x="2420" y="1810" as="sourcePoint" />
            <mxPoint x="3510" y="990" as="targetPoint" />
            <Array as="points">
              <mxPoint x="2065" y="2680" />
              <mxPoint x="3200" y="2680" />
              <mxPoint x="3200" y="2180" />
              <mxPoint x="3190" y="800" />
              <mxPoint x="3700" y="800" />
            </Array>
          </mxGeometry>
        </mxCell>
        <mxCell id="xALUO3HwdJlkxT8yfgA3-51" value="" style="endArrow=classic;html=1;rounded=0;exitX=0;exitY=0.5;exitDx=0;exitDy=0;entryX=0.5;entryY=0;entryDx=0;entryDy=0;strokeWidth=4;fontSize=55;" parent="WIyWlLk6GJQsqaUBKTNV-1" source="xALUO3HwdJlkxT8yfgA3-133" target="xALUO3HwdJlkxT8yfgA3-90" edge="1">
          <mxGeometry width="50" height="50" relative="1" as="geometry">
            <mxPoint x="4369" y="1377.5" as="sourcePoint" />
            <mxPoint x="3840" y="1575" as="targetPoint" />
            <Array as="points">
              <mxPoint x="3440" y="1500" />
            </Array>
          </mxGeometry>
        </mxCell>
        <mxCell id="xALUO3HwdJlkxT8yfgA3-60" value="&lt;font style=&quot;font-size: 55px;&quot;&gt;เเจ้งวันเวลาที่อาจารย์ว่าง&lt;/font&gt;" style="rounded=0;whiteSpace=wrap;html=1;strokeWidth=4;" parent="WIyWlLk6GJQsqaUBKTNV-1" vertex="1">
          <mxGeometry x="-735" y="525" width="450" height="190" as="geometry" />
        </mxCell>
        <mxCell id="xALUO3HwdJlkxT8yfgA3-61" value="" style="endArrow=classic;html=1;rounded=0;exitX=1;exitY=0.5;exitDx=0;exitDy=0;entryX=0;entryY=0.5;entryDx=0;entryDy=0;strokeWidth=4;" parent="WIyWlLk6GJQsqaUBKTNV-1" source="xALUO3HwdJlkxT8yfgA3-60" target="xALUO3HwdJlkxT8yfgA3-99" edge="1">
          <mxGeometry width="50" height="50" relative="1" as="geometry">
            <mxPoint x="50" y="730" as="sourcePoint" />
            <mxPoint x="-275" y="480" as="targetPoint" />
          </mxGeometry>
        </mxCell>
        <mxCell id="xALUO3HwdJlkxT8yfgA3-64" value="&lt;font style=&quot;font-size: 55px;&quot;&gt;ส่งเอกสารการจองห้องเรียน&lt;/font&gt;" style="rounded=0;whiteSpace=wrap;html=1;strokeWidth=4;" parent="WIyWlLk6GJQsqaUBKTNV-1" vertex="1">
          <mxGeometry x="-85" y="1165" width="630" height="230" as="geometry" />
        </mxCell>
        <mxCell id="xALUO3HwdJlkxT8yfgA3-65" value="" style="endArrow=classic;html=1;rounded=0;exitX=0.5;exitY=1;exitDx=0;exitDy=0;entryX=0.5;entryY=0;entryDx=0;entryDy=0;strokeWidth=4;" parent="WIyWlLk6GJQsqaUBKTNV-1" source="xALUO3HwdJlkxT8yfgA3-12" target="xALUO3HwdJlkxT8yfgA3-64" edge="1">
          <mxGeometry width="50" height="50" relative="1" as="geometry">
            <mxPoint x="474" y="1030" as="sourcePoint" />
            <mxPoint x="474" y="1150" as="targetPoint" />
          </mxGeometry>
        </mxCell>
        <mxCell id="xALUO3HwdJlkxT8yfgA3-66" value="&lt;font style=&quot;font-size: 55px;&quot;&gt;เอกสารการจอง&lt;/font&gt;" style="shape=document;whiteSpace=wrap;html=1;boundedLbl=1;strokeWidth=4;" parent="WIyWlLk6GJQsqaUBKTNV-1" vertex="1">
          <mxGeometry x="660" y="1188" width="370" height="175" as="geometry" />
        </mxCell>
        <mxCell id="xALUO3HwdJlkxT8yfgA3-73" value="" style="endArrow=classic;html=1;rounded=0;exitX=0.5;exitY=1;exitDx=0;exitDy=0;strokeWidth=4;entryX=0.5;entryY=0;entryDx=0;entryDy=0;" parent="WIyWlLk6GJQsqaUBKTNV-1" source="xALUO3HwdJlkxT8yfgA3-64" edge="1" target="xALUO3HwdJlkxT8yfgA3-74">
          <mxGeometry width="50" height="50" relative="1" as="geometry">
            <mxPoint x="1980" y="1470" as="sourcePoint" />
            <mxPoint x="2330" y="590" as="targetPoint" />
            <Array as="points">
              <mxPoint x="230" y="1550" />
              <mxPoint x="780" y="1540" />
              <mxPoint x="780" y="1450" />
              <mxPoint x="1220" y="1450" />
              <mxPoint x="1210" y="380" />
              <mxPoint x="1715" y="380" />
            </Array>
          </mxGeometry>
        </mxCell>
        <mxCell id="xALUO3HwdJlkxT8yfgA3-74" value="&lt;font style=&quot;font-size: 55px;&quot;&gt;รับเอกสาร&lt;/font&gt;" style="rounded=0;whiteSpace=wrap;html=1;strokeWidth=4;" parent="WIyWlLk6GJQsqaUBKTNV-1" vertex="1">
          <mxGeometry x="1490" y="450" width="450" height="140" as="geometry" />
        </mxCell>
        <mxCell id="xALUO3HwdJlkxT8yfgA3-77" value="" style="endArrow=classic;html=1;rounded=0;exitX=0;exitY=0.5;exitDx=0;exitDy=0;entryX=0.5;entryY=0;entryDx=0;entryDy=0;strokeWidth=4;" parent="WIyWlLk6GJQsqaUBKTNV-1" source="xALUO3HwdJlkxT8yfgA3-103" target="xALUO3HwdJlkxT8yfgA3-79" edge="1">
          <mxGeometry width="50" height="50" relative="1" as="geometry">
            <mxPoint x="2090" y="908" as="sourcePoint" />
            <mxPoint x="2050" y="1080" as="targetPoint" />
            <Array as="points">
              <mxPoint x="1390" y="1050" />
            </Array>
          </mxGeometry>
        </mxCell>
        <mxCell id="xALUO3HwdJlkxT8yfgA3-78" value="" style="endArrow=classic;html=1;rounded=0;exitX=1;exitY=0.5;exitDx=0;exitDy=0;strokeWidth=4;fontSize=55;entryX=0.5;entryY=0;entryDx=0;entryDy=0;" parent="WIyWlLk6GJQsqaUBKTNV-1" source="xALUO3HwdJlkxT8yfgA3-103" edge="1" target="xALUO3HwdJlkxT8yfgA3-153">
          <mxGeometry width="50" height="50" relative="1" as="geometry">
            <mxPoint x="2420" y="919" as="sourcePoint" />
            <mxPoint x="2270" y="1200" as="targetPoint" />
            <Array as="points">
              <mxPoint x="2070" y="1050" />
            </Array>
          </mxGeometry>
        </mxCell>
        <mxCell id="xALUO3HwdJlkxT8yfgA3-79" value="&lt;font style=&quot;font-size: 55px;&quot;&gt;สอบถามผู้มาติดต่อ &lt;br&gt;เพื่อเเก้ไขข้อมูลการขอใช้ห้อง&lt;/font&gt;" style="rounded=0;whiteSpace=wrap;html=1;strokeWidth=4;" parent="WIyWlLk6GJQsqaUBKTNV-1" vertex="1">
          <mxGeometry x="1130" y="1530" width="510" height="260" as="geometry" />
        </mxCell>
        <mxCell id="xALUO3HwdJlkxT8yfgA3-80" value="&lt;font style=&quot;font-size: 55px;&quot;&gt;เเจ้งผลการจองห้องเรียน&lt;br&gt;ทางโทรศัพท์&lt;br&gt;&lt;/font&gt;" style="rounded=0;whiteSpace=wrap;html=1;strokeWidth=4;" parent="WIyWlLk6GJQsqaUBKTNV-1" vertex="1">
          <mxGeometry x="1780" y="1860" width="572" height="180" as="geometry" />
        </mxCell>
        <mxCell id="xALUO3HwdJlkxT8yfgA3-81" value="&lt;font style=&quot;font-size: 55px;&quot;&gt;เอกสารการจอง&lt;/font&gt;" style="shape=document;whiteSpace=wrap;html=1;boundedLbl=1;strokeWidth=4;" parent="WIyWlLk6GJQsqaUBKTNV-1" vertex="1">
          <mxGeometry x="2470" y="1573" width="400" height="172" as="geometry" />
        </mxCell>
        <mxCell id="xALUO3HwdJlkxT8yfgA3-87" value="" style="endArrow=classic;html=1;rounded=0;exitX=0.5;exitY=1;exitDx=0;exitDy=0;entryX=0.5;entryY=0;entryDx=0;entryDy=0;strokeWidth=4;fontSize=55;" parent="WIyWlLk6GJQsqaUBKTNV-1" source="xALUO3HwdJlkxT8yfgA3-131" target="xALUO3HwdJlkxT8yfgA3-132" edge="1">
          <mxGeometry width="50" height="50" relative="1" as="geometry">
            <mxPoint x="3985" y="1105" as="sourcePoint" />
            <mxPoint x="4130" y="1288" as="targetPoint" />
          </mxGeometry>
        </mxCell>
        <mxCell id="xALUO3HwdJlkxT8yfgA3-90" value="&lt;font style=&quot;font-size: 55px;&quot;&gt;กระบวนการจองห้องเรียนไม่สำเร็จ&lt;/font&gt;" style="rounded=0;whiteSpace=wrap;html=1;strokeWidth=4;fontSize=55;" parent="WIyWlLk6GJQsqaUBKTNV-1" vertex="1">
          <mxGeometry x="3230" y="1630" width="420" height="160" as="geometry" />
        </mxCell>
        <mxCell id="xALUO3HwdJlkxT8yfgA3-97" value="&lt;font size=&quot;1&quot; style=&quot;&quot;&gt;&lt;b style=&quot;font-size: 66px;&quot;&gt;อาจารย์&lt;/b&gt;&lt;/font&gt;" style="rounded=0;whiteSpace=wrap;html=1;strokeWidth=4;" parent="WIyWlLk6GJQsqaUBKTNV-1" vertex="1">
          <mxGeometry x="-790" y="-200" width="580" height="160" as="geometry" />
        </mxCell>
        <mxCell id="xALUO3HwdJlkxT8yfgA3-99" value="&lt;font style=&quot;font-size: 55px;&quot;&gt;ประชุมหาวันเวลาที่&lt;/font&gt;&lt;font style=&quot;font-size: 55px;&quot;&gt;&lt;font style=&quot;font-size: 55px;&quot;&gt;นักศึกษา&lt;br&gt;ทุกคนว่างตรงกันกับอาจารย์&lt;/font&gt;&lt;br&gt;&lt;/font&gt;" style="rounded=0;whiteSpace=wrap;html=1;strokeWidth=4;" parent="WIyWlLk6GJQsqaUBKTNV-1" vertex="1">
          <mxGeometry x="-110" y="480" width="680" height="280" as="geometry" />
        </mxCell>
        <mxCell id="xALUO3HwdJlkxT8yfgA3-100" value="" style="endArrow=classic;html=1;rounded=0;exitX=0.5;exitY=1;exitDx=0;exitDy=0;entryX=0.5;entryY=0;entryDx=0;entryDy=0;strokeWidth=4;" parent="WIyWlLk6GJQsqaUBKTNV-1" source="xALUO3HwdJlkxT8yfgA3-99" target="xALUO3HwdJlkxT8yfgA3-12" edge="1">
          <mxGeometry width="50" height="50" relative="1" as="geometry">
            <mxPoint x="-130" y="690" as="sourcePoint" />
            <mxPoint x="45" y="690" as="targetPoint" />
          </mxGeometry>
        </mxCell>
        <mxCell id="xALUO3HwdJlkxT8yfgA3-101" value="&lt;font style=&quot;font-size: 55px;&quot;&gt;&lt;font style=&quot;border-color: var(--border-color); font-size: 55px;&quot;&gt;ตรวจสอบหาห้อง&lt;br style=&quot;border-color: var(--border-color);&quot;&gt;&lt;/font&gt;เเละเวลาว่างจากเอกสาร&lt;/font&gt;" style="rounded=0;whiteSpace=wrap;html=1;strokeWidth=4;" parent="WIyWlLk6GJQsqaUBKTNV-1" vertex="1">
          <mxGeometry x="1475" y="680" width="490" height="190" as="geometry" />
        </mxCell>
        <mxCell id="xALUO3HwdJlkxT8yfgA3-102" value="" style="endArrow=classic;html=1;rounded=0;entryX=0.5;entryY=0;entryDx=0;entryDy=0;strokeWidth=4;exitX=0.5;exitY=1;exitDx=0;exitDy=0;" parent="WIyWlLk6GJQsqaUBKTNV-1" source="xALUO3HwdJlkxT8yfgA3-74" target="xALUO3HwdJlkxT8yfgA3-101" edge="1">
          <mxGeometry width="50" height="50" relative="1" as="geometry">
            <mxPoint x="1855" y="620" as="sourcePoint" />
            <mxPoint x="1750" y="994" as="targetPoint" />
          </mxGeometry>
        </mxCell>
        <mxCell id="xALUO3HwdJlkxT8yfgA3-103" value="&lt;font style=&quot;font-size: 55px;&quot;&gt;มีห้องว่าง&lt;/font&gt;" style="rhombus;whiteSpace=wrap;html=1;strokeWidth=4;fontSize=55;" parent="WIyWlLk6GJQsqaUBKTNV-1" vertex="1">
          <mxGeometry x="1550" y="970" width="340" height="160" as="geometry" />
        </mxCell>
        <mxCell id="xALUO3HwdJlkxT8yfgA3-104" value="" style="endArrow=classic;html=1;rounded=0;entryX=0.5;entryY=0;entryDx=0;entryDy=0;strokeWidth=4;exitX=0.5;exitY=1;exitDx=0;exitDy=0;" parent="WIyWlLk6GJQsqaUBKTNV-1" target="xALUO3HwdJlkxT8yfgA3-103" edge="1" source="xALUO3HwdJlkxT8yfgA3-101">
          <mxGeometry width="50" height="50" relative="1" as="geometry">
            <mxPoint x="1810" y="870" as="sourcePoint" />
            <mxPoint x="1820" y="777" as="targetPoint" />
          </mxGeometry>
        </mxCell>
        <mxCell id="xALUO3HwdJlkxT8yfgA3-105" value="&lt;font style=&quot;font-size: 55px;&quot;&gt;F&lt;/font&gt;" style="text;html=1;align=center;verticalAlign=middle;resizable=0;points=[];autosize=1;strokeColor=none;fillColor=none;strokeWidth=4;fontSize=55;" parent="WIyWlLk6GJQsqaUBKTNV-1" vertex="1">
          <mxGeometry x="1470" y="935" width="60" height="80" as="geometry" />
        </mxCell>
        <mxCell id="xALUO3HwdJlkxT8yfgA3-106" value="&lt;font style=&quot;font-size: 55px;&quot;&gt;T&lt;/font&gt;" style="text;html=1;align=center;verticalAlign=middle;resizable=0;points=[];autosize=1;strokeColor=none;fillColor=none;strokeWidth=4;fontSize=55;" parent="WIyWlLk6GJQsqaUBKTNV-1" vertex="1">
          <mxGeometry x="2060" y="975" width="60" height="80" as="geometry" />
        </mxCell>
        <mxCell id="xALUO3HwdJlkxT8yfgA3-125" value="" style="endArrow=classic;html=1;rounded=0;exitX=0;exitY=0.5;exitDx=0;exitDy=0;entryX=1;entryY=0.5;entryDx=0;entryDy=0;strokeWidth=4;" parent="WIyWlLk6GJQsqaUBKTNV-1" source="xALUO3HwdJlkxT8yfgA3-80" target="xALUO3HwdJlkxT8yfgA3-127" edge="1">
          <mxGeometry width="50" height="50" relative="1" as="geometry">
            <mxPoint x="2385" y="1470" as="sourcePoint" />
            <mxPoint x="1720" y="1500" as="targetPoint" />
          </mxGeometry>
        </mxCell>
        <mxCell id="xALUO3HwdJlkxT8yfgA3-127" value="&lt;font style=&quot;font-size: 55px;&quot;&gt;ทราบผลการจองห้องเรียน&lt;/font&gt;" style="rounded=0;whiteSpace=wrap;html=1;strokeWidth=4;" parent="WIyWlLk6GJQsqaUBKTNV-1" vertex="1">
          <mxGeometry x="30" y="1840" width="430" height="220" as="geometry" />
        </mxCell>
        <mxCell id="xALUO3HwdJlkxT8yfgA3-128" value="&lt;font style=&quot;font-size: 55px;&quot;&gt;นำเอกสารการจองเสนอให้&lt;br&gt;ผู้บริหารอนุมัติ&lt;br&gt;&lt;/font&gt;" style="rounded=0;whiteSpace=wrap;html=1;strokeWidth=4;" parent="WIyWlLk6GJQsqaUBKTNV-1" vertex="1">
          <mxGeometry x="1755" y="2380" width="620" height="200" as="geometry" />
        </mxCell>
        <mxCell id="xALUO3HwdJlkxT8yfgA3-131" value="&lt;font style=&quot;font-size: 55px;&quot;&gt;รับเอกสาร&lt;/font&gt;" style="rounded=0;whiteSpace=wrap;html=1;strokeWidth=4;fontSize=55;" parent="WIyWlLk6GJQsqaUBKTNV-1" vertex="1">
          <mxGeometry x="3540" y="970" width="320" height="130" as="geometry" />
        </mxCell>
        <mxCell id="xALUO3HwdJlkxT8yfgA3-132" value="&lt;font style=&quot;font-size: 55px;&quot;&gt;&amp;nbsp;พิจารณา&lt;/font&gt;" style="rounded=0;whiteSpace=wrap;html=1;strokeWidth=4;fontSize=55;" parent="WIyWlLk6GJQsqaUBKTNV-1" vertex="1">
          <mxGeometry x="3545" y="1169" width="310" height="131" as="geometry" />
        </mxCell>
        <mxCell id="xALUO3HwdJlkxT8yfgA3-133" value="&lt;font style=&quot;font-size: 55px;&quot;&gt;อนุมัติ&lt;/font&gt;" style="rhombus;whiteSpace=wrap;html=1;strokeWidth=4;fontSize=55;" parent="WIyWlLk6GJQsqaUBKTNV-1" vertex="1">
          <mxGeometry x="3590" y="1430" width="220" height="140" as="geometry" />
        </mxCell>
        <mxCell id="xALUO3HwdJlkxT8yfgA3-134" value="" style="endArrow=classic;html=1;rounded=0;exitX=0.5;exitY=1;exitDx=0;exitDy=0;entryX=0.5;entryY=0;entryDx=0;entryDy=0;strokeWidth=4;fontSize=55;" parent="WIyWlLk6GJQsqaUBKTNV-1" source="xALUO3HwdJlkxT8yfgA3-132" target="xALUO3HwdJlkxT8yfgA3-133" edge="1">
          <mxGeometry width="50" height="50" relative="1" as="geometry">
            <mxPoint x="3655" y="1080" as="sourcePoint" />
            <mxPoint x="3655" y="1179" as="targetPoint" />
          </mxGeometry>
        </mxCell>
        <mxCell id="xALUO3HwdJlkxT8yfgA3-135" value="" style="endArrow=classic;html=1;rounded=0;exitX=1;exitY=0.5;exitDx=0;exitDy=0;strokeWidth=4;fontSize=55;" parent="WIyWlLk6GJQsqaUBKTNV-1" source="xALUO3HwdJlkxT8yfgA3-133" edge="1">
          <mxGeometry width="50" height="50" relative="1" as="geometry">
            <mxPoint x="3615" y="1510" as="sourcePoint" />
            <mxPoint x="3910" y="1620" as="targetPoint" />
            <Array as="points">
              <mxPoint x="3910" y="1500" />
            </Array>
          </mxGeometry>
        </mxCell>
        <mxCell id="xALUO3HwdJlkxT8yfgA3-136" value="&lt;font style=&quot;font-size: 55px;&quot;&gt;กระบวนการจองห้องเรียนสำเร็จ&lt;/font&gt;" style="rounded=0;whiteSpace=wrap;html=1;strokeWidth=4;fontSize=55;" parent="WIyWlLk6GJQsqaUBKTNV-1" vertex="1">
          <mxGeometry x="3700" y="1630" width="410" height="170" as="geometry" />
        </mxCell>
        <mxCell id="xALUO3HwdJlkxT8yfgA3-137" value="&lt;font style=&quot;font-size: 55px;&quot;&gt;F&lt;/font&gt;" style="text;html=1;align=center;verticalAlign=middle;resizable=0;points=[];autosize=1;strokeColor=none;fillColor=none;strokeWidth=4;fontSize=55;" parent="WIyWlLk6GJQsqaUBKTNV-1" vertex="1">
          <mxGeometry x="3505" y="1433" width="60" height="80" as="geometry" />
        </mxCell>
        <mxCell id="xALUO3HwdJlkxT8yfgA3-138" value="&lt;font style=&quot;font-size: 55px;&quot;&gt;T&lt;/font&gt;" style="text;html=1;align=center;verticalAlign=middle;resizable=0;points=[];autosize=1;strokeColor=none;fillColor=none;strokeWidth=4;fontSize=55;" parent="WIyWlLk6GJQsqaUBKTNV-1" vertex="1">
          <mxGeometry x="3840" y="1433" width="60" height="80" as="geometry" />
        </mxCell>
        <mxCell id="xALUO3HwdJlkxT8yfgA3-140" value="" style="endArrow=none;html=1;rounded=0;entryX=0;entryY=1;entryDx=0;entryDy=0;strokeWidth=4;" parent="WIyWlLk6GJQsqaUBKTNV-1" target="xALUO3HwdJlkxT8yfgA3-97" edge="1">
          <mxGeometry width="50" height="50" relative="1" as="geometry">
            <mxPoint x="-800" y="3240" as="sourcePoint" />
            <mxPoint x="-710" y="170" as="targetPoint" />
          </mxGeometry>
        </mxCell>
        <mxCell id="xALUO3HwdJlkxT8yfgA3-141" value="" style="endArrow=none;html=1;rounded=0;entryX=1;entryY=1;entryDx=0;entryDy=0;strokeWidth=4;" parent="WIyWlLk6GJQsqaUBKTNV-1" target="xALUO3HwdJlkxT8yfgA3-97" edge="1">
          <mxGeometry width="50" height="50" relative="1" as="geometry">
            <mxPoint x="-210" y="3240" as="sourcePoint" />
            <mxPoint x="-730" y="190" as="targetPoint" />
          </mxGeometry>
        </mxCell>
        <mxCell id="xALUO3HwdJlkxT8yfgA3-142" value="" style="endArrow=none;html=1;rounded=0;entryX=1;entryY=1;entryDx=0;entryDy=0;strokeWidth=4;" parent="WIyWlLk6GJQsqaUBKTNV-1" target="xALUO3HwdJlkxT8yfgA3-8" edge="1">
          <mxGeometry width="50" height="50" relative="1" as="geometry">
            <mxPoint x="1079" y="3260" as="sourcePoint" />
            <mxPoint x="-20" y="220" as="targetPoint" />
          </mxGeometry>
        </mxCell>
        <mxCell id="xALUO3HwdJlkxT8yfgA3-143" value="" style="endArrow=none;html=1;rounded=0;entryX=0;entryY=1;entryDx=0;entryDy=0;strokeWidth=4;" parent="WIyWlLk6GJQsqaUBKTNV-1" target="xALUO3HwdJlkxT8yfgA3-9" edge="1">
          <mxGeometry width="50" height="50" relative="1" as="geometry">
            <mxPoint x="2930" y="3260" as="sourcePoint" />
            <mxPoint x="1940" y="190" as="targetPoint" />
          </mxGeometry>
        </mxCell>
        <mxCell id="xALUO3HwdJlkxT8yfgA3-144" value="" style="endArrow=none;html=1;rounded=0;strokeWidth=4;entryX=0;entryY=1;entryDx=0;entryDy=0;" parent="WIyWlLk6GJQsqaUBKTNV-1" target="xALUO3HwdJlkxT8yfgA3-146" edge="1">
          <mxGeometry width="50" height="50" relative="1" as="geometry">
            <mxPoint x="4145" y="3250" as="sourcePoint" />
            <mxPoint x="4150" y="190" as="targetPoint" />
          </mxGeometry>
        </mxCell>
        <mxCell id="xALUO3HwdJlkxT8yfgA3-146" value="&lt;font size=&quot;1&quot; style=&quot;&quot;&gt;&lt;b style=&quot;font-size: 66px;&quot;&gt;เเม่บ้านประจำอาคารเรียน&lt;/b&gt;&lt;/font&gt;" style="rounded=0;whiteSpace=wrap;html=1;strokeWidth=4;" parent="WIyWlLk6GJQsqaUBKTNV-1" vertex="1">
          <mxGeometry x="4145" y="-200" width="805" height="160" as="geometry" />
        </mxCell>
        <mxCell id="xALUO3HwdJlkxT8yfgA3-147" value="&lt;font style=&quot;font-size: 55px;&quot;&gt;จัดเก็บเอกสารการจอง&lt;/font&gt;" style="rounded=0;whiteSpace=wrap;html=1;strokeWidth=4;" parent="WIyWlLk6GJQsqaUBKTNV-1" vertex="1">
          <mxGeometry x="1750" y="2850" width="620" height="150" as="geometry" />
        </mxCell>
        <mxCell id="xALUO3HwdJlkxT8yfgA3-148" value="" style="ellipse;whiteSpace=wrap;html=1;aspect=fixed;strokeWidth=4;fontSize=55;" parent="WIyWlLk6GJQsqaUBKTNV-1" vertex="1">
          <mxGeometry x="3642" y="1930" width="80" height="80" as="geometry" />
        </mxCell>
        <mxCell id="xALUO3HwdJlkxT8yfgA3-149" value="" style="endArrow=classic;html=1;rounded=0;exitX=0.5;exitY=1;exitDx=0;exitDy=0;strokeWidth=4;fontSize=55;" parent="WIyWlLk6GJQsqaUBKTNV-1" source="xALUO3HwdJlkxT8yfgA3-90" edge="1">
          <mxGeometry width="50" height="50" relative="1" as="geometry">
            <mxPoint x="3610" y="1800" as="sourcePoint" />
            <mxPoint x="3630" y="1960" as="targetPoint" />
            <Array as="points">
              <mxPoint x="3440" y="1960" />
            </Array>
          </mxGeometry>
        </mxCell>
        <mxCell id="xALUO3HwdJlkxT8yfgA3-150" value="" style="endArrow=classic;html=1;rounded=0;exitX=0.5;exitY=1;exitDx=0;exitDy=0;strokeWidth=4;fontSize=55;" parent="WIyWlLk6GJQsqaUBKTNV-1" source="xALUO3HwdJlkxT8yfgA3-136" edge="1">
          <mxGeometry width="50" height="50" relative="1" as="geometry">
            <mxPoint x="3900" y="1790" as="sourcePoint" />
            <mxPoint x="3730" y="1960" as="targetPoint" />
            <Array as="points">
              <mxPoint x="3905" y="1960" />
            </Array>
          </mxGeometry>
        </mxCell>
        <mxCell id="xALUO3HwdJlkxT8yfgA3-152" value="" style="endArrow=classic;html=1;rounded=0;exitX=0.5;exitY=1;exitDx=0;exitDy=0;entryX=0.5;entryY=0;entryDx=0;entryDy=0;strokeWidth=4;" parent="WIyWlLk6GJQsqaUBKTNV-1" source="xALUO3HwdJlkxT8yfgA3-148" target="xALUO3HwdJlkxT8yfgA3-147" edge="1">
          <mxGeometry width="50" height="50" relative="1" as="geometry">
            <mxPoint x="3595" y="1830" as="sourcePoint" />
            <mxPoint x="3520" y="1840" as="targetPoint" />
            <Array as="points">
              <mxPoint x="3690" y="2770" />
              <mxPoint x="2060" y="2760" />
            </Array>
          </mxGeometry>
        </mxCell>
        <mxCell id="xALUO3HwdJlkxT8yfgA3-153" value="&lt;font style=&quot;font-size: 55px;&quot;&gt;บันทึกข้อมูลการจองห้องเรียน&lt;br&gt;ลงตารางการใช้ห้องเรียน&lt;br&gt;&lt;/font&gt;" style="rounded=0;whiteSpace=wrap;html=1;strokeWidth=4;" parent="WIyWlLk6GJQsqaUBKTNV-1" vertex="1">
          <mxGeometry x="1783" y="1230" width="568" height="220" as="geometry" />
        </mxCell>
        <mxCell id="xALUO3HwdJlkxT8yfgA3-154" value="&lt;font style=&quot;font-size: 55px;&quot;&gt;ตารางการใช้ห้องเรียน&lt;/font&gt;" style="shape=document;whiteSpace=wrap;html=1;boundedLbl=1;strokeWidth=4;" parent="WIyWlLk6GJQsqaUBKTNV-1" vertex="1">
          <mxGeometry x="2485" y="1253" width="410" height="180" as="geometry" />
        </mxCell>
        <mxCell id="xALUO3HwdJlkxT8yfgA3-158" value="&lt;font style=&quot;&quot;&gt;&lt;font style=&quot;font-size: 55px;&quot;&gt;ใส่ข้อมูลห้องที่จองลงเอกสารการจอง&lt;/font&gt;&lt;br&gt;&lt;/font&gt;" style="rounded=0;whiteSpace=wrap;html=1;strokeWidth=4;" parent="WIyWlLk6GJQsqaUBKTNV-1" vertex="1">
          <mxGeometry x="1783" y="1558" width="567" height="202" as="geometry" />
        </mxCell>
        <mxCell id="xALUO3HwdJlkxT8yfgA3-161" value="" style="endArrow=classic;html=1;rounded=0;exitX=0.5;exitY=1;exitDx=0;exitDy=0;entryX=0.5;entryY=0;entryDx=0;entryDy=0;strokeWidth=4;" parent="WIyWlLk6GJQsqaUBKTNV-1" source="xALUO3HwdJlkxT8yfgA3-153" target="xALUO3HwdJlkxT8yfgA3-158" edge="1">
          <mxGeometry width="50" height="50" relative="1" as="geometry">
            <mxPoint x="2291" y="1532" as="sourcePoint" />
            <mxPoint x="2290" y="1610" as="targetPoint" />
          </mxGeometry>
        </mxCell>
        <mxCell id="xALUO3HwdJlkxT8yfgA3-162" value="" style="endArrow=classic;html=1;rounded=0;exitX=1;exitY=0.5;exitDx=0;exitDy=0;entryX=0;entryY=0.5;entryDx=0;entryDy=0;strokeWidth=4;" parent="WIyWlLk6GJQsqaUBKTNV-1" source="xALUO3HwdJlkxT8yfgA3-79" target="xALUO3HwdJlkxT8yfgA3-158" edge="1">
          <mxGeometry width="50" height="50" relative="1" as="geometry">
            <mxPoint x="1918" y="1480" as="sourcePoint" />
            <mxPoint x="1918" y="1530" as="targetPoint" />
          </mxGeometry>
        </mxCell>
        <mxCell id="xALUO3HwdJlkxT8yfgA3-163" value="" style="endArrow=classic;html=1;rounded=0;exitX=0.5;exitY=1;exitDx=0;exitDy=0;entryX=0.5;entryY=0;entryDx=0;entryDy=0;strokeWidth=4;" parent="WIyWlLk6GJQsqaUBKTNV-1" source="xALUO3HwdJlkxT8yfgA3-158" target="xALUO3HwdJlkxT8yfgA3-80" edge="1">
          <mxGeometry width="50" height="50" relative="1" as="geometry">
            <mxPoint x="2248" y="1450" as="sourcePoint" />
            <mxPoint x="2248" y="1548" as="targetPoint" />
          </mxGeometry>
        </mxCell>
        <mxCell id="xALUO3HwdJlkxT8yfgA3-164" value="&lt;font style=&quot;font-size: 55px;&quot;&gt;ส่งข้อความการจองห้องเรียนให้เเม่บ้าน&lt;/font&gt;" style="rounded=0;whiteSpace=wrap;html=1;strokeWidth=4;" parent="WIyWlLk6GJQsqaUBKTNV-1" vertex="1">
          <mxGeometry x="1780" y="2120" width="570" height="160" as="geometry" />
        </mxCell>
        <mxCell id="xALUO3HwdJlkxT8yfgA3-165" value="" style="endArrow=classic;html=1;rounded=0;exitX=0.5;exitY=1;exitDx=0;exitDy=0;strokeWidth=4;entryX=0.5;entryY=0;entryDx=0;entryDy=0;" parent="WIyWlLk6GJQsqaUBKTNV-1" edge="1" target="xALUO3HwdJlkxT8yfgA3-128" source="xALUO3HwdJlkxT8yfgA3-164">
          <mxGeometry width="50" height="50" relative="1" as="geometry">
            <mxPoint x="2240.29" y="2150" as="sourcePoint" />
            <mxPoint x="2240.29" y="2250" as="targetPoint" />
          </mxGeometry>
        </mxCell>
        <mxCell id="xALUO3HwdJlkxT8yfgA3-166" value="&lt;font style=&quot;font-size: 55px;&quot;&gt;ใบเเจ้งขอใช้ห้องเรียน&lt;/font&gt;" style="shape=document;whiteSpace=wrap;html=1;boundedLbl=1;strokeWidth=4;" parent="WIyWlLk6GJQsqaUBKTNV-1" vertex="1">
          <mxGeometry x="4300" y="440" width="400" height="210" as="geometry" />
        </mxCell>
        <mxCell id="xALUO3HwdJlkxT8yfgA3-167" value="" style="endArrow=none;dashed=1;html=1;rounded=0;exitX=1;exitY=0.5;exitDx=0;exitDy=0;strokeWidth=4;" parent="WIyWlLk6GJQsqaUBKTNV-1" source="xALUO3HwdJlkxT8yfgA3-164" edge="1">
          <mxGeometry width="50" height="50" relative="1" as="geometry">
            <mxPoint x="2747" y="1841" as="sourcePoint" />
            <mxPoint x="4260" y="500" as="targetPoint" />
            <Array as="points">
              <mxPoint x="3080" y="2200" />
              <mxPoint x="3070" y="500" />
            </Array>
          </mxGeometry>
        </mxCell>
        <mxCell id="xALUO3HwdJlkxT8yfgA3-168" value="" style="triangle;whiteSpace=wrap;html=1;fillColor=#000000;strokeWidth=4;" parent="WIyWlLk6GJQsqaUBKTNV-1" vertex="1">
          <mxGeometry x="4270" y="490" width="10" height="20" as="geometry" />
        </mxCell>
        <mxCell id="xALUO3HwdJlkxT8yfgA3-170" value="" style="endArrow=none;dashed=1;html=1;rounded=0;exitX=1;exitY=0.5;exitDx=0;exitDy=0;strokeWidth=4;" parent="WIyWlLk6GJQsqaUBKTNV-1" source="xALUO3HwdJlkxT8yfgA3-128" edge="1">
          <mxGeometry width="50" height="50" relative="1" as="geometry">
            <mxPoint x="2361" y="1678" as="sourcePoint" />
            <mxPoint x="2560" y="1780" as="targetPoint" />
            <Array as="points">
              <mxPoint x="2570" y="2480" />
            </Array>
          </mxGeometry>
        </mxCell>
        <mxCell id="xALUO3HwdJlkxT8yfgA3-171" value="" style="triangle;whiteSpace=wrap;html=1;fillColor=#000000;rotation=-90;strokeWidth=4;" parent="WIyWlLk6GJQsqaUBKTNV-1" vertex="1">
          <mxGeometry x="2553" y="1760" width="10" height="20" as="geometry" />
        </mxCell>
        <mxCell id="xALUO3HwdJlkxT8yfgA3-173" value="" style="endArrow=none;dashed=1;html=1;rounded=0;exitX=1;exitY=0.5;exitDx=0;exitDy=0;strokeWidth=4;" parent="WIyWlLk6GJQsqaUBKTNV-1" source="xALUO3HwdJlkxT8yfgA3-81" edge="1">
          <mxGeometry width="50" height="50" relative="1" as="geometry">
            <mxPoint x="2950" y="1415.79" as="sourcePoint" />
            <mxPoint x="3510" y="1030" as="targetPoint" />
            <Array as="points">
              <mxPoint x="2980" y="1659" />
              <mxPoint x="2980" y="1020" />
            </Array>
          </mxGeometry>
        </mxCell>
        <mxCell id="xALUO3HwdJlkxT8yfgA3-174" value="" style="triangle;whiteSpace=wrap;html=1;fillColor=#000000;strokeWidth=4;fontSize=55;" parent="WIyWlLk6GJQsqaUBKTNV-1" vertex="1">
          <mxGeometry x="3520" y="1022" width="10" height="13" as="geometry" />
        </mxCell>
        <mxCell id="xALUO3HwdJlkxT8yfgA3-175" value="" style="endArrow=none;html=1;rounded=0;entryX=1;entryY=1;entryDx=0;entryDy=0;strokeWidth=4;" parent="WIyWlLk6GJQsqaUBKTNV-1" target="xALUO3HwdJlkxT8yfgA3-146" edge="1">
          <mxGeometry width="50" height="50" relative="1" as="geometry">
            <mxPoint x="4930" y="3240" as="sourcePoint" />
            <mxPoint x="4020" y="190" as="targetPoint" />
          </mxGeometry>
        </mxCell>
        <mxCell id="xALUO3HwdJlkxT8yfgA3-176" value="" style="endArrow=none;html=1;rounded=0;strokeWidth=4;" parent="WIyWlLk6GJQsqaUBKTNV-1" edge="1">
          <mxGeometry width="50" height="50" relative="1" as="geometry">
            <mxPoint x="-800" y="3240" as="sourcePoint" />
            <mxPoint x="4920" y="3260" as="targetPoint" />
          </mxGeometry>
        </mxCell>
        <mxCell id="xALUO3HwdJlkxT8yfgA3-177" value="" style="endArrow=classic;html=1;rounded=0;exitX=0.5;exitY=1;exitDx=0;exitDy=0;entryX=0.5;entryY=0;entryDx=0;entryDy=0;strokeWidth=4;" parent="WIyWlLk6GJQsqaUBKTNV-1" source="xALUO3HwdJlkxT8yfgA3-147" target="xALUO3HwdJlkxT8yfgA3-178" edge="1">
          <mxGeometry width="50" height="50" relative="1" as="geometry">
            <mxPoint x="2090" y="2790" as="sourcePoint" />
            <mxPoint x="2090" y="3040" as="targetPoint" />
          </mxGeometry>
        </mxCell>
        <mxCell id="xALUO3HwdJlkxT8yfgA3-178" value="" style="ellipse;whiteSpace=wrap;html=1;aspect=fixed;strokeWidth=4;" parent="WIyWlLk6GJQsqaUBKTNV-1" vertex="1">
          <mxGeometry x="2015" y="3080" width="90" height="90" as="geometry" />
        </mxCell>
        <mxCell id="xALUO3HwdJlkxT8yfgA3-179" value="" style="ellipse;whiteSpace=wrap;html=1;aspect=fixed;fillColor=#050505;strokeWidth=4;" parent="WIyWlLk6GJQsqaUBKTNV-1" vertex="1">
          <mxGeometry x="2028.13" y="3093.13" width="63.75" height="63.75" as="geometry" />
        </mxCell>
        <mxCell id="xALUO3HwdJlkxT8yfgA3-180" value="" style="ellipse;whiteSpace=wrap;html=1;aspect=fixed;fillColor=#000000;strokeWidth=4;" parent="WIyWlLk6GJQsqaUBKTNV-1" vertex="1">
          <mxGeometry x="-550" y="-10" width="50" height="50" as="geometry" />
        </mxCell>
        <mxCell id="xALUO3HwdJlkxT8yfgA3-182" value="" style="endArrow=classic;html=1;rounded=0;exitX=0.5;exitY=1;exitDx=0;exitDy=0;strokeWidth=4;entryX=0.469;entryY=-0.006;entryDx=0;entryDy=0;entryPerimeter=0;" parent="WIyWlLk6GJQsqaUBKTNV-1" source="xALUO3HwdJlkxT8yfgA3-180" edge="1" target="xALUO3HwdJlkxT8yfgA3-25">
          <mxGeometry width="50" height="50" relative="1" as="geometry">
            <mxPoint x="-510" y="370" as="sourcePoint" />
            <mxPoint x="-525" y="240" as="targetPoint" />
          </mxGeometry>
        </mxCell>
        <mxCell id="Nnb8ap8-5H-5QivKJoPN-1" value="" style="endArrow=classic;html=1;rounded=0;exitX=1;exitY=0.5;exitDx=0;exitDy=0;entryX=0;entryY=0.5;entryDx=0;entryDy=0;dashed=1;strokeWidth=4;" edge="1" parent="WIyWlLk6GJQsqaUBKTNV-1" source="xALUO3HwdJlkxT8yfgA3-158" target="xALUO3HwdJlkxT8yfgA3-81">
          <mxGeometry width="50" height="50" relative="1" as="geometry">
            <mxPoint x="2900" y="1680" as="sourcePoint" />
            <mxPoint x="2950" y="1630" as="targetPoint" />
          </mxGeometry>
        </mxCell>
        <mxCell id="Nnb8ap8-5H-5QivKJoPN-2" value="" style="endArrow=classic;html=1;rounded=0;exitX=1;exitY=0.5;exitDx=0;exitDy=0;entryX=0;entryY=0.5;entryDx=0;entryDy=0;dashed=1;strokeWidth=4;" edge="1" parent="WIyWlLk6GJQsqaUBKTNV-1" source="xALUO3HwdJlkxT8yfgA3-153" target="xALUO3HwdJlkxT8yfgA3-154">
          <mxGeometry width="50" height="50" relative="1" as="geometry">
            <mxPoint x="2358" y="1608" as="sourcePoint" />
            <mxPoint x="2480" y="1613" as="targetPoint" />
          </mxGeometry>
        </mxCell>
        <mxCell id="Nnb8ap8-5H-5QivKJoPN-6" value="" style="endArrow=classic;html=1;rounded=0;exitX=1;exitY=0.5;exitDx=0;exitDy=0;entryX=0.5;entryY=0;entryDx=0;entryDy=0;strokeWidth=4;dashed=1;" edge="1" parent="WIyWlLk6GJQsqaUBKTNV-1" source="xALUO3HwdJlkxT8yfgA3-12" target="xALUO3HwdJlkxT8yfgA3-66">
          <mxGeometry width="50" height="50" relative="1" as="geometry">
            <mxPoint x="1195" y="1200" as="sourcePoint" />
            <mxPoint x="1245" y="1150" as="targetPoint" />
            <Array as="points">
              <mxPoint x="845" y="960" />
            </Array>
          </mxGeometry>
        </mxCell>
        <mxCell id="Nnb8ap8-5H-5QivKJoPN-7" value="" style="endArrow=classic;html=1;rounded=0;exitX=1;exitY=0.5;exitDx=0;exitDy=0;entryX=0;entryY=0.5;entryDx=0;entryDy=0;strokeWidth=4;dashed=1;" edge="1" parent="WIyWlLk6GJQsqaUBKTNV-1" source="xALUO3HwdJlkxT8yfgA3-64" target="xALUO3HwdJlkxT8yfgA3-66">
          <mxGeometry width="50" height="50" relative="1" as="geometry">
            <mxPoint x="360" y="1270" as="sourcePoint" />
            <mxPoint x="625" y="1450" as="targetPoint" />
            <Array as="points" />
          </mxGeometry>
        </mxCell>
      </root>
    </mxGraphModel>
  </diagram>
</mxfile>
